<svg xmlns="http://www.w3.org/2000/svg" viewBox="0 0 100 100" width="32" height="32">
  <!-- Brain outline -->
  <path d="M85,50c0,19.33-15.67,35-35,35S15,69.33,15,50S30.67,15,50,15S85,30.67,85,50z" fill="#FFFFFF" />
  
  <!-- Brain design with site color scheme -->
  <path d="M65.3,31.2c-2.3-0.5-4.6,0-6.6,1.1c-1.6-3.7-5.2-6.4-9.5-6.4c-3.9,0-7.3,2.2-9.1,5.4c-1.1-0.4-2.2-0.7-3.4-0.7
    c-5,0-9.1,4.1-9.1,9.1c0,0.9,0.1,1.7,0.4,2.5c-3.4,1.6-5.7,5-5.7,9c0,5.5,4.5,10,10,10c0.6,0,1.1-0.1,1.7-0.2
    c1.7,3.2,5.1,5.4,9,5.4c3.9,0,7.3-2.2,9-5.4c0.5,0.1,1.1,0.2,1.7,0.2c3.9,0,7.3-2.2,9-5.4c0.5,0.1,1.1,0.2,1.7,0.2c5.5,0,10-4.5,10-10
    C74.3,36.1,70.4,32,65.3,31.2z" fill="#FF007B" />
  
  <!-- Brain detail with secondary color -->
  <path d="M66.9,42.9c-0.5-0.8-1.3-1.5-2.2-1.8c0.1-0.4,0.1-0.9,0.1-1.3c0-2.8-1.6-5.2-3.9-6.4c0-0.1,0-0.3,0-0.4
    c0-2.8-2.3-5.1-5.1-5.1c-1.4,0-2.7,0.6-3.6,1.5c-0.9-0.9-2.2-1.5-3.6-1.5c-2.8,0-5.1,2.3-5.1,5.1c0,0.2,0,0.3,0,0.5
    c-2.3,1.2-3.9,3.6-3.9,6.3c0,0.5,0.1,1,0.2,1.4c-0.9,0.3-1.6,0.9-2.1,1.7c-1.9,1.2-3.2,3.3-3.2,5.8c0,3.8,3.1,6.8,6.8,6.8
    c0.1,0,0.2,0,0.4,0c0.7,1.9,2.3,3.4,4.4,3.9c0.7,1.9,2.5,3.2,4.6,3.2c2.1,0,3.9-1.3,4.6-3.2c2-0.5,3.6-2,4.3-3.9c0.1,0,0.2,0,0.3,0
    c1.6,0,3-0.5,4.1-1.4c1.6-0.1,3-0.8,4-2c0.9-0.7,1.4-1.8,1.4-3.1C69.5,45.4,68.5,43.8,66.9,42.9z" fill="#00E1FF" />
  
  <circle cx="40" cy="46" r="3" fill="#FFFFFF" />
  <circle cx="60" cy="46" r="3" fill="#FFFFFF" />
</svg> 